<svg viewBox="0 0 24 24" fill="#795cec" xmlns="http://www.w3.org/2000/svg" width="32" class="mx-auto my-0"><path fill-rule="evenodd" clip-rule="evenodd" d="M13.5084 1.90695C13.0506 1.64042 12.5303 1.5 12.0005 1.5C11.4707 1.5 10.9505 1.64041 10.4926 1.90692L3.3659 6.05363C3.02641 6.25177 2.74475 6.53538 2.54897 6.87624C2.35319 7.21709 2.25013 7.60346 2.25004 7.99654V16.0035C2.25013 16.3965 2.35319 16.7829 2.54897 17.1238C2.74475 17.4646 3.02641 17.7482 3.3659 17.9464L10.4926 22.0931C10.9505 22.3596 11.4707 22.5 12.0005 22.5C12.5303 22.5 13.0506 22.3596 13.5084 22.0931L20.6342 17.9464C20.9737 17.7482 21.2547 17.4651 21.4505 17.1243C21.6465 16.7834 21.7498 16.3971 21.75 16.0039V7.99609C21.7498 7.60288 21.6465 7.21659 21.4505 6.87572C21.2547 6.53487 20.9737 6.25177 20.6342 6.05363L13.5084 1.90695ZM3.75004 8.39338V16.0033C3.7501 16.1343 3.78445 16.2631 3.84968 16.3767C3.91485 16.4901 4.00855 16.5845 4.12149 16.6506L11.2472 20.7967L11.25 20.7983V12.8051L3.75004 8.39338ZM12.75 20.7984L12.7528 20.7967L19.8779 16.6504C19.991 16.5844 20.0849 16.49 20.1502 16.3765C20.2155 16.263 20.2499 16.1339 20.25 16.003V8.39338L12.75 12.8052V20.7984ZM19.4698 7.11211L12.7528 3.2033C12.5527 3.0868 12.2305 3.01525 12.0005 3C11.7916 3.02234 11.4299 3.09698 11.2472 3.2033L4.52985 7.11182L12 11.506L19.4698 7.11211Z"></path></svg>